<svg xmlns="http://www.w3.org/2000/svg" viewBox="0 0 313.18 83.59"><defs><style>.cls-1{fill:#404041;}.cls-2{fill:#00a69c;}.cls-3{fill:#faaf40;}.cls-4{fill:#f05a28;}.cls-5{fill:#25a9e0;}</style></defs><title>clix_logo</title><g id="Layer_2" data-name="Layer 2"><g id="Layer_1-2" data-name="Layer 1"><path class="cls-1" d="M130.46,62.83a33.54,33.54,0,0,0,17.75-5.06l2.84,11.09c-4.17,2.75-11.27,5.41-22.63,5.41-19.44,0-31.24-11.71-31.24-32.12,0-21.66,11.63-32.84,29-32.84,17,0,25.65,8.34,25.65,20.86l-12.34,1.68C139.07,24,134.72,20,126.11,20c-9.49,0-16.33,6.57-16.33,21.48,0,14,7.81,21.39,20.68,21.39"/><path class="cls-1" d="M159.21,10.2H171V63.8a31.74,31.74,0,0,0,6.65.54l-.18,9a42.45,42.45,0,0,1-7.72.62c-7,0-10.56-1.6-10.56-9.76Z"/><path class="cls-1" d="M189.12,24.4c-4.35,0-7.55-2.93-7.55-7.37s3.2-7.27,7.55-7.27,7.45,2.92,7.45,7.27-3,7.37-7.45,7.37m5.94,39.4a22.2,22.2,0,0,0,5.33.53l-.18,9.06a37.55,37.55,0,0,1-8,.62c-6.48,0-9-1.78-9-7.9V30.61h11.8Z"/><path class="cls-1" d="M242.36,64.33a24.47,24.47,0,0,0,5.86.54L248,73.39a28.93,28.93,0,0,1-6,.71c-4.53,0-6.39-.89-8.17-3.55L226,58.74l-9.58,14.47H204.38l14.55-20.59-9.49-12.16a29.38,29.38,0,0,0-5.51-.53l.27-9a20.68,20.68,0,0,1,6.21-1c3.38,0,5.06.71,7,3.28l8.78,11.9,10.47-15.27,11.81,1L233.31,52Z"/><path class="cls-1" d="M259.05,24.4c-4.35,0-7.55-2.93-7.55-7.37s3.2-7.27,7.55-7.27,7.45,2.92,7.45,7.27-3,7.37-7.45,7.37M265,63.8a22.2,22.2,0,0,0,5.33.53l-.18,9.06a37.62,37.62,0,0,1-8,.62c-6.48,0-9-1.78-9-7.9V30.61H265Z"/><path class="cls-1" d="M292.59,29.72c12.07,0,19.17,4.18,19.52,12.07l-11.27,1.42c-.71-3.46-2.93-5-7.72-5-4.61,0-6.83,1.51-6.83,4.26,0,9,26.89.89,26.89,18.64,0,7.81-5.68,13.14-19.61,13.14-8.26,0-14.2-1.6-18.73-4.44l1.69-9.41a34.13,34.13,0,0,0,16.68,4.62c6.13,0,8-1.34,8-4.09,0-7.81-26.71-1.15-26.71-17.84,0-8.07,5.68-13.4,18.1-13.4"/><path class="cls-1" d="M292.59,29.72c12.07,0,19.17,4.18,19.52,12.07l-11.27,1.42c-.71-3.46-2.93-5-7.72-5-4.61,0-6.83,1.51-6.83,4.26,0,9,26.89.89,26.89,18.64,0,7.81-5.68,13.14-19.61,13.14-8.26,0-14.2-1.6-18.73-4.44l1.69-9.41a34.13,34.13,0,0,0,16.68,4.62c6.13,0,8-1.34,8-4.09,0-7.81-26.71-1.15-26.71-17.84,0-8.07,5.68-13.4,18.1-13.4"/><path class="cls-2" d="M0,42.06V25.83a8.41,8.41,0,0,1,4.24-7.3l7.54-4.31a8.6,8.6,0,0,1,8.4-.07L34.6,22Z"/><path class="cls-3" d="M71.79,39.42V22.18a6.67,6.67,0,0,0-3.36-5.79L41.74,1.13a8.6,8.6,0,0,0-8.57,0l-14,8.08Z"/><path class="cls-4" d="M72,41.53V58.77a6.64,6.64,0,0,1-3.36,5.78l-8.42,4.81a8.63,8.63,0,0,1-8.4.08L37.4,61.55Z"/><path class="cls-5" d="M.21,44.17V60.4a8.42,8.42,0,0,0,4.24,7.3L30.26,82.45a8.6,8.6,0,0,0,8.57,0l14-8.08Z"/></g></g></svg>